<?xml version="1.0" encoding="UTF-8"?>
<svg id="Capa_1" xmlns="http://www.w3.org/2000/svg" xmlns:xlink="http://www.w3.org/1999/xlink" version="1.1" viewBox="0 0 500 500">
  <!-- Generator: Adobe Illustrator 30.3.0, SVG Export Plug-In . SVG Version: 2.1.3 Build 182)  -->
  <defs>
    <style>
      .st0 {
        fill: url(#linear-gradient);
      }

      .st1 {
        fill: #2859a5;
      }

      .st2 {
        fill: #24377e;
      }
    </style>
    <linearGradient id="linear-gradient" x1="325.71" y1="423.36" x2="432.57" y2="158.88" gradientUnits="userSpaceOnUse">
      <stop offset="0" stop-color="#24377e"/>
      <stop offset="1" stop-color="#2859a5"/>
    </linearGradient>
  </defs>
  <circle class="st1" cx="314.58" cy="115.21" r="48.42"/>
  <circle class="st2" cx="84.3" cy="269.52" r="48.42"/>
  <path class="st0" d="M461.41,223.8c0-29.97-24.3-54.27-54.27-54.27s-54.27,24.3-54.27,54.27c0,5.85.94,11.48,2.65,16.76,0,0,0,0-.01,0,1.2,6,7.15,32-2.63,52.09-8.44,17.32-27.49,28.88-32.99,32.17,0,0,0,0,.01,0-17.14,9.12-28.81,27.16-28.81,47.93,0,29.97,24.3,54.27,54.27,54.27s54.27-24.3,54.27-54.27c0-5.28-.77-10.37-2.17-15.19,0,0,0,0,0,0,0-.01-.01-.03-.02-.04-.48-1.65-1.04-3.26-1.67-4.84-2.86-9.56-6.81-30.32,3.85-51.14,7.86-15.36,29.48-27.77,35.2-31.04h0c15.92-9.46,26.6-26.82,26.6-46.69Z"/>
  <path class="st2" d="M273.98,207.04c-4.66-2.64-9.57-4.44-14.55-5.45,0,0,0,0,.01,0-5.33-1.75-28.73-8.75-40.32-25.62-9.99-14.55-10.61-34.95-10.74-40.82,0,0,0,0,0,0,.47-17.78-8.64-35.22-25.19-44.6-23.88-13.53-54.22-5.14-67.75,18.75-13.53,23.88-5.14,54.22,18.75,67.75,4.2,2.38,8.61,4.07,13.09,5.13,0,0,0,0,0,0,.01,0,.03,0,.04,0,1.53.36,3.07.64,4.61.86,8.9,2.04,27.24,8.26,39.02,26.16,7.13,10.83,8.5,28.15,8.77,37.35-.09,1.23-.15,2.47-.15,3.73,0,5.36.86,10.51,2.43,15.35,0,0,0,0-.01,0,1.1,5.5,6.55,29.31-2.41,47.71-7.73,15.86-25.18,26.46-30.22,29.46,0,0,0,0,0,0-15.7,8.35-26.39,24.88-26.39,43.9,0,27.45,22.25,49.71,49.71,49.71s49.71-22.25,49.71-49.71c0-4.83-.7-9.5-1.99-13.91,0,0,0,0,0,0,0-.01-.01-.03-.02-.04-.44-1.51-.95-2.99-1.53-4.43-2.62-8.75-6.24-27.77,3.53-46.84,6.14-11.99,21.43-22.02,29.05-26.57,8.67-4.25,16.19-11.07,21.31-20.1,13.53-23.88,5.14-54.22-18.75-67.75Z"/>
</svg>